<mxfile host="Electron" modified="2023-05-18T09:05:00.773Z" agent="Mozilla/5.0 (Macintosh; Intel Mac OS X 10_15_7) AppleWebKit/537.36 (KHTML, like Gecko) draw.io/21.2.8 Chrome/112.0.5615.165 Electron/24.2.0 Safari/537.36" etag="w9KGDtTyPUaAqE93FLko" version="21.2.8" type="device">
  <diagram name="페이지-1" id="k3ljyYAE6409FS4YcsRM">
    <mxGraphModel dx="2653" dy="1498" grid="1" gridSize="10" guides="1" tooltips="1" connect="1" arrows="1" fold="1" page="1" pageScale="1" pageWidth="1169" pageHeight="827" math="0" shadow="0">
      <root>
        <mxCell id="0" />
        <mxCell id="1" parent="0" />
        <mxCell id="7T73Lvvv7by2M8Yaz9Gj-1" value="사용자" style="shape=umlActor;verticalLabelPosition=bottom;verticalAlign=top;html=1;" vertex="1" parent="1">
          <mxGeometry x="420" y="115" width="30" height="60" as="geometry" />
        </mxCell>
        <mxCell id="7T73Lvvv7by2M8Yaz9Gj-2" value="회원가입" style="ellipse;whiteSpace=wrap;html=1;" vertex="1" parent="1">
          <mxGeometry x="580" y="106" width="150" height="60" as="geometry" />
        </mxCell>
        <mxCell id="7T73Lvvv7by2M8Yaz9Gj-3" value="회사 회원" style="shape=umlActor;verticalLabelPosition=bottom;verticalAlign=top;html=1;" vertex="1" parent="1">
          <mxGeometry x="280" y="330" width="30" height="60" as="geometry" />
        </mxCell>
        <mxCell id="7T73Lvvv7by2M8Yaz9Gj-4" value="일반 회원" style="shape=umlActor;verticalLabelPosition=bottom;verticalAlign=top;html=1;" vertex="1" parent="1">
          <mxGeometry x="280" y="500" width="30" height="60" as="geometry" />
        </mxCell>
        <mxCell id="7T73Lvvv7by2M8Yaz9Gj-5" value="" style="endArrow=block;html=1;rounded=0;align=center;verticalAlign=bottom;endFill=0;labelBackgroundColor=none;endSize=8;" edge="1" parent="1">
          <mxGeometry x="1" y="142" relative="1" as="geometry">
            <mxPoint x="320" y="359.5" as="sourcePoint" />
            <mxPoint x="410" y="440" as="targetPoint" />
            <mxPoint x="110" y="52" as="offset" />
          </mxGeometry>
        </mxCell>
        <mxCell id="7T73Lvvv7by2M8Yaz9Gj-6" value="" style="endArrow=block;html=1;rounded=0;align=center;verticalAlign=bottom;endFill=0;labelBackgroundColor=none;endSize=8;" edge="1" parent="1">
          <mxGeometry x="1" y="142" relative="1" as="geometry">
            <mxPoint x="320" y="520" as="sourcePoint" />
            <mxPoint x="410" y="450" as="targetPoint" />
            <mxPoint x="110" y="52" as="offset" />
          </mxGeometry>
        </mxCell>
        <mxCell id="7T73Lvvv7by2M8Yaz9Gj-7" value="회원" style="shape=umlActor;verticalLabelPosition=bottom;verticalAlign=top;html=1;" vertex="1" parent="1">
          <mxGeometry x="420" y="420" width="30" height="60" as="geometry" />
        </mxCell>
        <mxCell id="7T73Lvvv7by2M8Yaz9Gj-8" value="로그인" style="ellipse;whiteSpace=wrap;html=1;" vertex="1" parent="1">
          <mxGeometry x="580" y="295" width="150" height="60" as="geometry" />
        </mxCell>
        <mxCell id="7T73Lvvv7by2M8Yaz9Gj-9" value="로그아웃" style="ellipse;whiteSpace=wrap;html=1;" vertex="1" parent="1">
          <mxGeometry x="580" y="415" width="150" height="60" as="geometry" />
        </mxCell>
        <mxCell id="7T73Lvvv7by2M8Yaz9Gj-10" value="회원 탈퇴" style="ellipse;whiteSpace=wrap;html=1;" vertex="1" parent="1">
          <mxGeometry x="580" y="545" width="150" height="60" as="geometry" />
        </mxCell>
        <mxCell id="7T73Lvvv7by2M8Yaz9Gj-11" value="" style="endArrow=none;html=1;rounded=0;exitX=1;exitY=0.3333333333333333;exitDx=0;exitDy=0;exitPerimeter=0;entryX=0;entryY=0.5;entryDx=0;entryDy=0;" edge="1" parent="1" source="7T73Lvvv7by2M8Yaz9Gj-1" target="7T73Lvvv7by2M8Yaz9Gj-2">
          <mxGeometry width="50" height="50" relative="1" as="geometry">
            <mxPoint x="400" y="175" as="sourcePoint" />
            <mxPoint x="450" y="125" as="targetPoint" />
          </mxGeometry>
        </mxCell>
        <mxCell id="7T73Lvvv7by2M8Yaz9Gj-12" value="" style="endArrow=none;html=1;rounded=0;exitX=1;exitY=0.3333333333333333;exitDx=0;exitDy=0;exitPerimeter=0;entryX=0;entryY=0.5;entryDx=0;entryDy=0;" edge="1" parent="1" source="7T73Lvvv7by2M8Yaz9Gj-7">
          <mxGeometry width="50" height="50" relative="1" as="geometry">
            <mxPoint x="480" y="440" as="sourcePoint" />
            <mxPoint x="580" y="441" as="targetPoint" />
          </mxGeometry>
        </mxCell>
        <mxCell id="7T73Lvvv7by2M8Yaz9Gj-13" value="" style="endArrow=none;html=1;rounded=0;exitX=1;exitY=0.3333333333333333;exitDx=0;exitDy=0;exitPerimeter=0;entryX=0;entryY=0.5;entryDx=0;entryDy=0;" edge="1" parent="1" source="7T73Lvvv7by2M8Yaz9Gj-7" target="7T73Lvvv7by2M8Yaz9Gj-8">
          <mxGeometry width="50" height="50" relative="1" as="geometry">
            <mxPoint x="494" y="359.5" as="sourcePoint" />
            <mxPoint x="594" y="360.5" as="targetPoint" />
          </mxGeometry>
        </mxCell>
        <mxCell id="7T73Lvvv7by2M8Yaz9Gj-14" value="" style="endArrow=none;html=1;rounded=0;exitX=1;exitY=0.3333333333333333;exitDx=0;exitDy=0;exitPerimeter=0;entryX=0;entryY=0.5;entryDx=0;entryDy=0;" edge="1" parent="1" source="7T73Lvvv7by2M8Yaz9Gj-7" target="7T73Lvvv7by2M8Yaz9Gj-10">
          <mxGeometry width="50" height="50" relative="1" as="geometry">
            <mxPoint x="480" y="480" as="sourcePoint" />
            <mxPoint x="580" y="481" as="targetPoint" />
          </mxGeometry>
        </mxCell>
        <mxCell id="7T73Lvvv7by2M8Yaz9Gj-15" value="회원관리 시스템" style="shape=umlFrame;whiteSpace=wrap;html=1;pointerEvents=0;recursiveResize=0;container=1;collapsible=0;width=160;" vertex="1" parent="1">
          <mxGeometry x="540" y="60" width="230" height="580" as="geometry" />
        </mxCell>
      </root>
    </mxGraphModel>
  </diagram>
</mxfile>
